<?xml version="1.0" standalone="no"?>
<!DOCTYPE svg PUBLIC "-//W3C//DTD SVG 20010904//EN"
 "http://www.w3.org/TR/2001/REC-SVG-20010904/DTD/svg10.dtd">
<svg version="1.0" xmlns="http://www.w3.org/2000/svg"
 width="2432.000000pt" height="2432.000000pt" viewBox="0 0 2432.000000 2432.000000"
 preserveAspectRatio="xMidYMid meet">
<metadata>
Created by potrace 1.11, written by Peter Selinger 2001-2013
</metadata>
<g transform="translate(0.000000,2432.000000) scale(0.100000,-0.100000)"
fill="#000000" stroke="none">
<path d="M7827 17104 c-1 -2 -41 -5 -87 -8 -47 -3 -103 -7 -125 -10 -37 -4
-54 -7 -132 -21 -60 -10 -260 -64 -294 -79 -20 -8 -39 -12 -43 -9 -3 4 -6 1
-6 -5 0 -7 -3 -12 -7 -11 -35 5 -361 -171 -393 -211 -3 -4 -29 -23 -58 -44
-29 -20 -61 -44 -71 -54 -10 -9 -40 -35 -67 -57 -99 -81 -229 -207 -341 -331
-89 -99 -94 -105 -175 -213 -15 -20 -33 -43 -40 -51 -7 -9 -22 -29 -32 -45
-11 -17 -38 -55 -60 -85 -22 -30 -40 -58 -38 -62 1 -5 -2 -8 -6 -8 -7 0 -40
-45 -87 -118 -5 -8 -16 -22 -23 -31 -8 -9 -36 -47 -62 -86 -27 -38 -56 -79
-64 -90 -25 -32 -98 -136 -131 -185 -17 -25 -33 -46 -37 -48 -5 -2 -8 -8 -8
-13 0 -5 -7 -17 -16 -26 -13 -15 -135 -184 -174 -243 -17 -26 -94 -134 -102
-145 -5 -5 -38 -53 -75 -105 -37 -52 -69 -97 -72 -100 -3 -3 -33 -45 -66 -95
-33 -49 -66 -94 -72 -98 -7 -4 -13 -14 -13 -22 0 -7 -4 -15 -8 -17 -5 -1 -23
-25 -42 -53 -19 -27 -42 -59 -52 -69 -10 -11 -18 -26 -18 -33 0 -7 -4 -13 -9
-13 -6 0 -16 -11 -23 -24 -19 -35 -110 -166 -130 -187 -10 -11 -18 -21 -18
-24 0 -7 -70 -105 -116 -162 -14 -18 -23 -33 -20 -33 3 0 -2 -8 -11 -18 -10
-10 -24 -27 -31 -38 -23 -35 -132 -189 -145 -204 -7 -8 -22 -31 -34 -50 -20
-32 -34 -51 -73 -97 -5 -7 -10 -17 -10 -23 0 -5 -4 -10 -10 -10 -5 0 -10 -6
-10 -13 0 -7 -10 -23 -22 -37 -13 -14 -40 -50 -60 -80 -57 -84 -71 -103 -90
-124 -10 -11 -18 -26 -18 -33 0 -7 -3 -13 -8 -13 -4 0 -18 -18 -32 -40 -14
-22 -27 -40 -30 -40 -3 0 -14 -16 -24 -35 -11 -19 -22 -35 -26 -35 -4 0 -13
-14 -20 -30 -7 -17 -18 -34 -24 -38 -6 -4 -29 -34 -51 -67 -22 -33 -42 -62
-46 -65 -3 -3 -25 -34 -49 -70 -24 -36 -49 -70 -54 -77 -6 -6 -42 -56 -81
-112 -38 -56 -73 -101 -77 -101 -4 0 -8 -4 -8 -10 0 -5 -14 -29 -30 -52 -17
-24 -38 -54 -48 -68 -9 -14 -22 -31 -29 -38 -7 -7 -13 -16 -13 -20 0 -6 -16
-28 -60 -79 -5 -7 -10 -17 -10 -23 0 -5 -4 -10 -10 -10 -5 0 -10 -7 -10 -15 0
-8 -4 -15 -9 -15 -5 0 -13 -9 -16 -20 -4 -12 -16 -30 -28 -41 -12 -11 -22 -23
-22 -27 0 -5 -15 -26 -32 -49 -18 -22 -33 -44 -33 -48 0 -3 -6 -12 -12 -19 -7
-7 -47 -62 -88 -121 -41 -59 -83 -116 -92 -126 -10 -11 -18 -21 -18 -24 0 -5
-140 -206 -155 -221 -6 -6 -30 -41 -54 -78 -24 -36 -48 -66 -53 -66 -5 0 -7
-4 -4 -8 3 -5 -8 -23 -24 -41 -17 -18 -30 -35 -30 -39 0 -4 -20 -32 -43 -63
-23 -32 -49 -67 -57 -79 -18 -26 -75 -106 -122 -170 -18 -25 -31 -46 -30 -47
1 -2 -6 -11 -15 -22 -10 -10 -38 -49 -63 -86 -25 -37 -52 -75 -61 -85 -8 -9
-19 -23 -22 -31 -4 -8 -26 -39 -48 -69 -22 -30 -50 -70 -61 -87 -11 -18 -24
-33 -29 -33 -5 0 -9 -5 -9 -12 0 -6 -7 -20 -17 -30 -9 -10 -21 -27 -27 -37
-10 -18 -240 -343 -258 -366 -5 -5 -40 -55 -79 -110 -38 -55 -75 -107 -82
-115 -17 -21 -51 -75 -49 -77 1 -2 -8 -13 -21 -27 -31 -34 -47 -54 -47 -60 0
-3 -15 -26 -32 -50 -18 -24 -41 -54 -50 -67 -44 -62 -189 -268 -210 -297 -13
-18 -29 -40 -36 -48 -7 -8 -11 -14 -8 -14 3 0 -2 -9 -12 -19 -29 -33 -42 -50
-42 -56 0 -3 -5 -11 -10 -18 -13 -15 -80 -106 -100 -137 -8 -13 -25 -35 -38
-50 -12 -15 -22 -31 -22 -34 0 -4 -4 -12 -10 -19 -46 -57 -60 -76 -60 -85 0
-5 -7 -12 -15 -16 -8 -3 -15 -10 -15 -17 0 -10 -13 -29 -60 -86 -6 -7 -10 -17
-10 -23 0 -5 -3 -10 -7 -10 -5 0 -24 -25 -43 -55 -19 -30 -38 -55 -42 -55 -5
0 -8 -7 -8 -15 0 -7 -6 -18 -12 -22 -7 -4 -19 -17 -26 -28 -41 -66 -52 -81
-65 -95 -7 -8 -29 -39 -47 -67 -18 -29 -37 -53 -42 -53 -4 0 -8 -5 -8 -11 0
-9 -42 -72 -60 -89 -11 -11 -50 -70 -50 -75 0 -3 -13 -20 -30 -38 -16 -18 -30
-38 -30 -44 0 -7 -3 -13 -8 -13 -4 0 -12 -8 -17 -19 -6 -10 -29 -46 -53 -80
-56 -79 -71 -125 -68 -199 6 -108 56 -183 156 -234 l55 -28 1496 0 c1694 0
1561 -7 1649 80 26 25 57 62 69 83 13 20 28 37 33 37 6 0 9 3 5 6 -3 3 -1 11
4 18 6 6 59 81 119 166 60 85 114 160 119 167 6 7 11 16 11 22 0 5 7 12 16 15
8 3 12 10 9 16 -3 5 -3 10 2 10 4 0 19 17 33 38 14 20 27 39 30 42 3 3 25 34
50 70 24 36 48 70 53 75 11 14 129 183 142 204 6 9 13 18 16 21 5 5 129 180
159 225 31 46 104 150 114 162 30 34 36 43 36 52 0 5 11 19 25 32 13 13 25 28
25 32 0 4 17 31 38 60 21 29 61 84 87 122 27 39 52 72 57 73 4 2 8 10 8 17 0
7 4 15 8 17 4 2 23 27 42 56 18 28 37 52 42 52 4 0 8 7 8 15 0 8 5 15 10 15 6
0 10 4 10 10 0 11 101 153 113 158 4 2 7 10 7 18 0 8 7 17 15 20 8 4 15 12 15
18 0 7 11 23 25 36 14 13 25 27 25 31 0 8 147 219 159 229 3 3 12 17 20 33 8
15 18 27 23 27 4 0 8 7 8 15 0 7 6 18 13 22 13 9 57 68 57 78 0 3 5 11 10 18
29 34 68 89 94 130 17 26 34 47 38 47 4 0 8 5 8 11 0 11 50 82 63 87 4 2 7 8
7 13 0 6 4 15 10 22 46 57 61 77 56 77 -3 0 2 8 12 18 9 10 24 29 32 42 8 12
44 64 80 114 36 50 76 108 90 129 14 20 28 37 33 37 4 0 7 5 7 11 0 5 25 44
55 84 30 41 55 79 55 85 0 5 3 10 8 10 4 0 18 18 32 40 14 22 28 40 32 40 5 0
8 4 8 9 0 7 187 278 218 316 5 6 51 70 103 144 52 74 106 151 122 173 15 21
27 43 27 49 0 6 5 7 10 4 6 -3 10 -1 10 5 0 9 182 273 200 290 3 3 23 32 45
65 22 33 45 64 52 68 7 4 13 13 13 20 0 7 14 28 30 47 16 19 30 40 30 47 0 6
4 13 8 15 9 3 22 22 166 228 44 63 82 117 85 120 4 3 20 25 36 50 34 51 36 54
68 95 13 17 48 66 78 110 29 44 56 82 59 85 3 3 25 34 49 70 24 36 47 67 50
70 3 3 31 41 61 85 30 44 58 85 62 90 18 24 75 104 102 143 53 78 96 114 161
136 68 23 141 20 202 -9 78 -36 81 -39 253 -295 47 -69 88 -126 92 -128 5 -2
8 -9 8 -16 0 -7 8 -21 18 -32 9 -11 22 -27 27 -37 6 -9 29 -43 53 -77 23 -33
42 -63 42 -66 0 -3 8 -14 18 -25 11 -10 25 -32 33 -47 8 -15 17 -29 20 -32 5
-4 243 -354 343 -505 22 -33 43 -62 46 -65 3 -3 32 -45 64 -95 32 -49 63 -91
68 -93 4 -2 8 -8 8 -14 0 -6 11 -26 25 -44 14 -18 25 -37 25 -43 0 -6 5 -11
10 -11 6 0 18 -16 27 -35 9 -19 20 -35 25 -35 4 0 8 -7 8 -15 0 -8 5 -15 10
-15 6 0 10 -7 10 -15 0 -8 5 -15 10 -15 6 0 10 -7 10 -15 0 -8 4 -15 9 -15 5
0 11 -8 15 -17 3 -10 21 -38 39 -63 18 -25 85 -121 148 -215 62 -93 116 -172
119 -175 3 -3 31 -43 62 -90 83 -124 112 -165 121 -168 4 -2 7 -9 7 -15 1 -7
14 -28 30 -47 17 -19 30 -40 30 -46 0 -7 4 -14 8 -16 5 -2 28 -32 53 -68 24
-36 47 -66 52 -68 4 -2 7 -10 7 -18 0 -8 5 -14 10 -14 6 0 10 -7 10 -15 0 -8
5 -15 10 -15 6 0 10 -6 10 -14 0 -8 3 -16 8 -18 4 -1 20 -23 37 -48 16 -25 34
-48 40 -52 7 -5 7 -8 0 -8 -6 0 -6 -3 1 -8 5 -4 39 -50 74 -102 36 -52 67 -97
70 -100 14 -14 50 -71 50 -80 0 -5 4 -10 9 -10 5 0 13 -10 17 -22 4 -13 11
-26 16 -29 16 -10 35 -102 32 -152 -4 -58 -44 -141 -87 -180 -29 -27 -78 -54
-117 -65 -8 -2 -818 -5 -1800 -7 -982 -1 -1785 -3 -1785 -4 0 -2 -12 -4 -27
-6 -66 -9 -130 -56 -188 -140 -19 -27 -38 -52 -41 -55 -3 -3 -21 -28 -41 -56
-19 -28 -40 -57 -46 -65 -24 -28 -112 -150 -112 -155 0 -3 -6 -12 -12 -19 -34
-38 -119 -155 -113 -155 3 0 -6 -11 -20 -25 -14 -14 -25 -29 -25 -34 0 -4 -16
-25 -35 -47 -19 -21 -35 -45 -35 -51 0 -7 -4 -13 -10 -13 -5 0 -10 -7 -10 -15
0 -8 -4 -15 -8 -15 -5 0 -31 -33 -58 -72 -27 -40 -59 -84 -71 -98 -13 -14 -23
-28 -23 -32 0 -3 -6 -13 -13 -20 -7 -7 -52 -69 -101 -138 -49 -69 -94 -130
-100 -135 -6 -6 -15 -18 -21 -27 -27 -44 -86 -126 -104 -145 -12 -12 -21 -25
-21 -29 0 -3 -10 -19 -22 -34 -25 -31 -55 -71 -78 -106 -27 -40 -144 -199
-157 -212 -7 -7 -13 -17 -13 -21 0 -5 -13 -24 -30 -42 -16 -19 -30 -37 -30
-41 0 -4 -6 -13 -12 -20 -27 -28 -68 -95 -68 -110 0 -9 -4 -19 -9 -22 -10 -6
-7 -115 4 -163 4 -17 16 -41 26 -52 11 -11 19 -23 19 -27 0 -13 72 -68 112
-86 39 -18 330 -18 7942 -15 4345 2 7933 6 7971 9 39 4 108 9 154 13 135 10
174 14 201 19 14 2 57 8 95 12 96 9 163 18 235 29 14 2 42 6 62 9 21 3 58 10
83 16 25 6 48 9 52 8 5 0 15 1 23 4 8 4 44 12 80 19 36 6 69 14 74 17 5 3 21
6 35 8 34 4 69 12 79 18 5 3 19 7 33 9 60 12 155 40 168 50 8 7 16 11 18 9 6
-6 67 10 81 20 6 6 12 8 12 5 0 -3 30 6 68 20 37 14 87 32 112 40 25 9 50 20
56 25 7 5 20 10 30 13 11 2 37 11 59 21 22 10 42 18 45 19 3 1 46 21 95 45 50
24 93 42 98 42 4 -1 7 2 7 7 0 5 9 13 21 16 41 13 264 150 303 187 11 10 25
18 32 18 7 0 14 3 16 8 2 4 25 25 53 47 141 112 276 251 377 385 26 36 52 70
56 75 70 92 243 431 234 458 -1 4 3 7 10 7 6 0 9 3 5 6 -3 3 3 26 13 50 11 24
17 44 15 44 -3 0 1 17 9 38 8 20 18 51 22 67 9 37 10 42 23 83 5 17 7 32 4 32
-3 0 0 7 7 15 7 8 10 15 7 15 -3 0 -1 15 4 33 5 17 11 46 14 62 2 17 7 41 10
55 37 173 50 334 50 620 0 260 -5 331 -30 480 -22 124 -23 128 -45 210 -11 41
-23 88 -25 104 -2 15 -10 35 -17 44 -7 8 -11 17 -9 19 4 5 -18 65 -53 145 -9
21 -17 40 -16 43 0 10 -94 180 -127 230 -19 28 -39 58 -46 68 -14 22 -82 109
-117 152 -43 52 -264 269 -300 295 -19 14 -45 35 -57 47 -13 13 -26 22 -29 22
-3 -1 -17 8 -30 20 -13 12 -28 21 -32 21 -5 0 -17 8 -28 18 -10 9 -32 23 -47
31 -43 23 -103 84 -128 132 -51 100 -25 250 56 321 34 29 63 51 92 69 18 11
33 25 33 30 0 5 5 9 10 9 19 0 179 154 235 224 17 21 42 53 57 70 15 17 28 34
28 38 0 4 6 13 13 20 23 24 94 139 128 208 12 25 30 56 39 70 14 21 38 76 95
215 14 33 27 70 25 70 -1 0 4 14 10 30 7 17 13 37 15 45 2 8 11 42 20 75 20
70 31 118 39 160 2 17 7 39 9 50 27 125 41 547 24 705 -4 36 -9 83 -11 105 -5
50 -22 138 -50 265 -25 107 -88 292 -137 400 -58 127 -64 140 -72 140 -5 0 -5
5 -2 10 3 6 1 10 -4 10 -6 0 -11 6 -11 14 0 15 -160 258 -189 288 -9 9 -29 34
-46 55 -55 70 -187 204 -274 279 -18 16 -42 37 -52 46 -47 44 -354 249 -354
237 0 -2 -15 6 -33 19 -43 31 -286 151 -392 194 -47 19 -94 39 -105 43 -11 5
-22 9 -25 10 -3 1 -12 4 -20 8 -24 9 -173 59 -190 62 -8 2 -15 4 -15 5 0 1 -8
3 -18 5 -10 2 -43 11 -75 20 -92 27 -221 56 -344 80 -16 3 -40 7 -55 10 -16 3
-39 8 -53 10 -14 3 -36 7 -50 9 -14 3 -41 8 -60 10 -19 3 -46 8 -60 10 -56 10
-107 18 -145 22 -95 9 -130 13 -130 14 0 3 -66 10 -130 14 -33 3 -60 5 -60 6
0 2 -71 7 -212 14 -51 2 -97 7 -103 11 -5 3 -10 2 -10 -4 0 -6 -11 -7 -27 -2
-29 7 -6666 6 -6693 -1 -62 -17 -120 -53 -149 -92 -8 -11 -23 -28 -33 -38 -10
-10 -18 -22 -18 -27 0 -5 -7 -14 -15 -21 -9 -7 -59 -67 -113 -134 -53 -67
-107 -132 -120 -146 -12 -14 -25 -33 -28 -42 -3 -10 -9 -18 -13 -18 -5 0 -33
-33 -64 -73 -31 -40 -68 -87 -82 -103 -14 -16 -29 -33 -33 -39 -13 -17 -87
-110 -92 -115 -3 -3 -41 -50 -85 -105 -44 -55 -86 -109 -95 -119 -8 -10 -22
-26 -30 -35 -8 -9 -26 -32 -40 -51 -13 -19 -27 -37 -31 -40 -4 -3 -24 -27 -44
-54 -42 -56 -46 -61 -78 -97 -12 -14 -33 -40 -47 -58 -14 -17 -33 -42 -44 -54
-10 -12 -30 -38 -45 -57 -14 -19 -33 -42 -41 -50 -32 -35 -60 -70 -55 -70 3 0
-8 -13 -25 -30 -16 -16 -30 -32 -30 -36 0 -4 -10 -15 -22 -25 -11 -11 -17 -19
-12 -19 5 0 -2 -7 -14 -16 -12 -8 -22 -19 -22 -25 0 -5 -8 -17 -17 -27 -23
-24 -50 -56 -92 -112 -19 -25 -42 -52 -50 -61 -9 -9 -25 -29 -36 -44 -11 -16
-27 -35 -35 -43 -16 -17 -49 -86 -56 -117 -26 -121 35 -247 149 -307 l42 -23
1545 -2 c850 -2 2717 -4 4150 -6 1433 -1 2619 -6 2635 -10 17 -4 46 -9 65 -11
19 -3 36 -6 38 -7 1 -1 5 -2 10 -3 36 -6 175 -55 242 -84 71 -32 134 -81 186
-145 19 -22 64 -107 58 -107 -4 0 -2 -6 4 -12 5 -7 13 -26 16 -43 3 -16 9 -41
12 -55 13 -62 12 -228 -2 -295 -8 -38 -15 -77 -16 -85 -1 -8 -19 -49 -40 -90
-57 -110 -147 -187 -278 -238 -94 -36 -203 -68 -265 -77 -5 -1 -12 -3 -15 -4
-22 -11 -602 -13 -4392 -14 -3526 -1 -4289 2 -4302 12 -9 8 -16 10 -16 7 0 -9
-56 22 -88 49 -13 11 -47 54 -75 95 -28 41 -54 77 -59 78 -4 2 -8 10 -8 17 0
7 -3 15 -7 17 -5 2 -28 32 -52 68 -24 36 -63 91 -85 123 -23 33 -48 69 -56 82
-19 29 -196 286 -207 300 -5 6 -33 46 -62 90 -30 44 -58 82 -63 83 -4 2 -8 8
-8 13 0 6 -18 34 -40 64 -22 30 -40 58 -40 64 0 5 -4 11 -8 13 -9 3 -109 146
-127 179 -5 11 -13 19 -17 19 -5 0 -8 6 -8 14 0 8 -3 16 -7 18 -5 2 -33 39
-63 83 -30 44 -58 81 -62 83 -4 2 -8 10 -8 18 0 8 -4 14 -10 14 -5 0 -10 4
-10 10 0 5 -18 33 -39 61 -22 29 -45 64 -53 78 -7 14 -16 28 -19 31 -5 5 -22
28 -164 235 -38 55 -82 117 -98 138 -16 20 -25 37 -20 37 4 0 3 4 -3 8 -6 4
-42 52 -80 107 -37 55 -72 102 -76 103 -4 2 -8 8 -8 13 0 9 -97 151 -124 182
-9 9 -16 19 -16 22 0 6 -79 124 -90 135 -3 3 -34 48 -69 100 -36 52 -70 100
-75 107 -17 19 -30 35 -61 78 -33 44 -31 41 -95 115 -72 82 -210 220 -221 220
-6 0 -7 5 -4 10 3 6 3 10 -2 10 -4 0 -25 16 -46 35 -51 46 -99 85 -172 140
-33 25 -65 49 -72 55 -7 5 -17 10 -23 10 -5 0 -10 4 -10 8 0 4 -15 16 -32 26
-18 11 -51 31 -73 45 -22 15 -60 35 -85 46 -25 10 -53 25 -62 33 -9 8 -22 11
-27 7 -6 -3 -11 -2 -11 3 0 6 -20 16 -45 23 -25 7 -45 17 -45 21 0 4 -13 8
-28 8 -15 0 -32 4 -37 9 -6 4 -32 14 -60 20 -27 7 -61 17 -75 22 -14 5 -41 11
-60 14 -19 3 -73 12 -120 20 -47 8 -114 17 -150 21 -67 6 -368 12 -373 8z
m12743 -6063 c3 -2 16 -4 30 -6 103 -11 140 -16 168 -24 18 -6 35 -10 37 -10
3 0 15 -3 28 -6 13 -4 30 -7 38 -9 8 -2 28 -9 44 -16 17 -7 33 -14 36 -14 3
-1 32 -14 63 -31 67 -34 173 -136 202 -192 10 -21 21 -40 25 -43 6 -6 42 -99
46 -120 1 -8 6 -35 11 -60 13 -69 6 -237 -13 -310 -18 -70 -81 -200 -97 -200
-5 0 -6 -5 -3 -10 3 -6 -1 -13 -9 -16 -9 -3 -16 -13 -16 -21 0 -8 -4 -12 -8
-9 -5 3 -15 -6 -22 -19 -7 -14 -18 -25 -23 -25 -5 0 -17 -9 -26 -19 -21 -24
-142 -91 -164 -91 -9 0 -17 -5 -17 -11 0 -5 -5 -7 -10 -4 -6 4 -17 1 -25 -5
-8 -7 -15 -9 -15 -6 0 4 -6 4 -12 -1 -7 -4 -17 -8 -23 -9 -48 -10 -60 -13 -60
-14 0 -1 -15 -3 -34 -6 -19 -2 -46 -6 -60 -9 -80 -16 -463 -18 -3156 -18
-3036 -1 -3046 -1 -3092 36 -7 5 -13 7 -13 3 0 -4 -15 1 -32 11 -18 9 -35 18
-38 18 -3 1 -25 11 -49 24 -68 35 -170 132 -216 203 -5 9 -32 48 -60 87 -27
39 -89 126 -136 194 -47 67 -102 146 -122 174 -20 29 -37 57 -37 62 0 5 -4 11
-8 13 -8 3 -100 131 -127 176 -5 10 -13 19 -16 22 -4 3 -21 27 -38 54 -59 94
-38 186 57 243 28 17 189 18 3508 17 1913 0 3481 -2 3484 -3z"/>
</g>
</svg>
