<svg xmlns="http://www.w3.org/2000/svg" viewBox="0 0 264.21 89.62"><defs><style>.cls-1{fill:#101923;}</style></defs><g id="Layer_2" data-name="Layer 2"><path class="cls-1" d="M367,236.8a1.68,1.68,0,0,0-1.63-.51A38.73,38.73,0,0,0,352.51,240l.87-1.79a1.34,1.34,0,0,0,.17-.67.9.9,0,0,0-.12-.41,1.87,1.87,0,0,0-1.63-.56,3.42,3.42,0,0,0-1.3.36,2.14,2.14,0,0,0-1,1L346.56,244q-8.12.25-14.83.26H329c-1.29,0-2.58,0-3.87.05a21.81,21.81,0,0,0,1.78-3.05,5.29,5.29,0,0,0,.64-3c-.12-.9-.84-1.51-2.16-1.82a10.21,10.21,0,0,0-9.06,5.39,3.07,3.07,0,0,0,.51,2.66q-14.89-.15-29.74-.31h-.25l-.57-.1a6,6,0,0,1-1.47-.18,1.48,1.48,0,0,1-1-.79c1.12-.69,2.24-1.39,3.36-2.11a2.4,2.4,0,0,0,1.55-.3,1.13,1.13,0,0,0,.59-1.18.89.89,0,0,0,.05-1.1,2.55,2.55,0,0,0-1.1-.88,2.36,2.36,0,0,0-1.5-.17,5.79,5.79,0,0,0-4,.61,5.47,5.47,0,0,0-2.64,2.72,3.17,3.17,0,0,0-.21.82l-.71.41-.24.15-.65,0c.51-.9,1-1.76,1.55-2.55a12.72,12.72,0,0,0,.87-1.33q1.73-2.93,3.51-5.9,3.62-5.85,7.33-11.64a1.22,1.22,0,0,0-.16-1.59,2.56,2.56,0,0,0-1.67-.74,1.71,1.71,0,0,0-1.58.64q-4.89,7.59-9.52,15.33a22,22,0,0,1-1.58,2.41,31,31,0,0,0-2.82,4.64,7.86,7.86,0,0,0-.39,1c-2.51.12-5,.23-7.54.29h-2c-1.15,0-2.43-.05-3.82-.13a21.12,21.12,0,0,1-3.46-.46c-.91-.23-1.25-.54-1-.95a1.18,1.18,0,0,0,.05-1.49,1.44,1.44,0,0,0,.73-1,1.27,1.27,0,0,0-.28-1.13,1.7,1.7,0,0,0-1.32-.56,15.84,15.84,0,0,0-9.51,2.46,12.34,12.34,0,0,0-1.63,1.22,11.72,11.72,0,0,0,.71-1.53q1.46-3.95-4-8.05a39.62,39.62,0,0,0-18.27-5.69c-1.5-.18-3-.32-4.51-.43l-.36,0h-.15c-2.27-.16-4.55-.25-6.84-.25Q215.84,222.8,221,221l5.19-1.85q2.24-.81,4.58-1.58a63,63,0,0,0,18.93-8.72c.64-.55.89-1.07.73-1.56a2,2,0,0,0-1.06-1.18,3.82,3.82,0,0,0-1.76-.44,198.83,198.83,0,0,0-36.13,6.2l0,0a5.15,5.15,0,0,1-.64.13,1.2,1.2,0,0,1-.38,0,.29.29,0,0,1-.2-.1.49.49,0,0,1-.08-.18.54.54,0,0,1,0-.18,1.26,1.26,0,0,1,.08-.18h0a1.33,1.33,0,0,0-.54-1.77,3.13,3.13,0,0,0-2.24-.54,2,2,0,0,0-1.7,1.49l-3.21,3.64a4.72,4.72,0,0,1-.4.46,200.35,200.35,0,0,0-26.68,10.74q-6.53.25-12.4.64a.73.73,0,0,1-.66-.3.91.91,0,0,1,0-.93q17.4-31.47,37.14-51.47a2.2,2.2,0,0,0,.59-1,1.27,1.27,0,0,0,0-.71,1.66,1.66,0,0,0-.28-.47,3,3,0,0,0-3.82.06l-35.21,32.55q-7.17,6.77-14.71,13.33c-1.39,1.2-2.8,2.39-4.22,3.59a3.22,3.22,0,0,0-1.43.1,30.07,30.07,0,0,0-13.48,9q-11.35,1.68-21.93,4a2.62,2.62,0,0,0-1.66.94,1.78,1.78,0,0,0-.33,1.41,1.71,1.71,0,0,0,.77,1.08,2.18,2.18,0,0,0,1.67.21q9.93-2.16,20.51-3.8a2.76,2.76,0,0,0,.92.36,2.62,2.62,0,0,0,.91.05,15.27,15.27,0,0,0,3.87-1.23q10.53-1.44,21.48-2.41a.83.83,0,0,1,.71.36.8.8,0,0,1,0,.87q-4.12,7.8-6.69,13t-6.29,12.94a1.66,1.66,0,0,0-.05,1.44,1.78,1.78,0,0,0,.87.82,2.9,2.9,0,0,0,1.22.26,2.6,2.6,0,0,0,2.19-1.23l.45-.88q3.51-7.49,6.08-12.68c.86-1.73,1.84-3.66,2.94-5.81a3.32,3.32,0,0,0,1,.53,2.52,2.52,0,0,0,2.18-.24,199.47,199.47,0,0,1,19-10.79q6.8-.28,14.21-.44c-3.15,3.89-6.31,7.79-9.44,11.7-.51.75-.54,1.38-.08,1.89a2.84,2.84,0,0,0,1.94.9,2.21,2.21,0,0,0,2-.74q1.42-1.8,2.85-3.54,4-5,8-9.95a2.59,2.59,0,0,0,1.53.36c2.83-.39,5.67-.64,8.5-.78,3.13,0,6.33,0,9.62.06h.68l2.07.15a44.65,44.65,0,0,1,17.09,3.89c3.36,2,4.75,3.94,4.18,5.88s-2.09,3.67-4.53,5.22a35.91,35.91,0,0,1-6.92,3.52,123.89,123.89,0,0,1-18.42,5.12,102.29,102.29,0,0,1-37.56,2.26l-.61-.1c-1.46-.24-3-.57-4.58-1a14.91,14.91,0,0,1-4.27-1.79c-1.33-1-1.87-2-1.63-3.16a6.55,6.55,0,0,1,1.88-3.2,25.38,25.38,0,0,1,3-2.61l.1-.11A59.2,59.2,0,0,1,182,233.73c.92-.38,1.33-.88,1.23-1.49A2.27,2.27,0,0,0,182,230.7a2.47,2.47,0,0,0-2.21-.2,61.45,61.45,0,0,0-16.44,9.33l-.56.46a25.14,25.14,0,0,0-4.78,4.48,5.9,5.9,0,0,0-1.12,5.93,8.88,8.88,0,0,0,4.81,4.51,33.94,33.94,0,0,0,6.43,2,68.69,68.69,0,0,0,19.75,1.54,144.64,144.64,0,0,0,42-8.21,39.73,39.73,0,0,0,8.75-4.48,19.71,19.71,0,0,0,3-2.4,3.4,3.4,0,0,0,0,1.76,2.6,2.6,0,0,0,2.64,1.79,10,10,0,0,0,4.15-1.18,34.07,34.07,0,0,0,4.2-2.46,8.43,8.43,0,0,0,4.73,1.8,91,91,0,0,0,16,0,8.63,8.63,0,0,0,.1,1,1.76,1.76,0,0,0,1.27,1.08,2.34,2.34,0,0,0,1.63-.06c1.46-.82,2.92-1.65,4.38-2.51a3.72,3.72,0,0,0,.41.46,7.71,7.71,0,0,0,5.19,1.75h.2l.61.1q17.76.15,35.47.36a1.84,1.84,0,0,0,1.41-.58,17.17,17.17,0,0,0,1.82.07q7,0,12.59,0c2.14,0,4.45-.06,6.88-.1,0,0,0,.09,0,.12a.74.74,0,0,0,.38.44,2.29,2.29,0,0,0,1.12.25,3.68,3.68,0,0,0,1.27-.23,2,2,0,0,0,.93-.65l1.85,0a1.81,1.81,0,0,0,1.61-.79,1.49,1.49,0,0,0,.07-1.47A1.2,1.2,0,0,0,352,244a16.38,16.38,0,0,1,4.64-2.6,40.82,40.82,0,0,1,8.78-2.07,2.06,2.06,0,0,0,1.73-1.18A1.46,1.46,0,0,0,367,236.8ZM202.11,221.68l3.3-4.16A191.46,191.46,0,0,1,240,210.14a110.24,110.24,0,0,1-12.31,4.62q-2.7.87-5.24,1.74-6.87,2.46-13.74,4.87-4.42,1.59-8.85,3.13C200.56,223.54,201.32,222.6,202.11,221.68Zm-63.2,6.12c1.05-.85,2.08-1.71,3.1-2.56.48-.41,1-.8,1.43-1.18q8.28-6.87,15.06-13.13,8.9-8.25,17.71-16.35a291,291,0,0,0-18.27,29.17,4.88,4.88,0,0,1-3.72,2.51Q146.39,226.88,138.91,227.8ZM156.47,236c.61-1.16,1.25-2.37,1.93-3.63a4.8,4.8,0,0,1,3.86-2.56l5.32-.34Q162,232.52,156.47,236ZM185.31,225q5-2.17,10.08-4.08a.66.66,0,0,1,.63,0,.81.81,0,0,1,.36.52.79.79,0,0,1-.13.64L194,224.89Q189.56,225,185.31,225Zm62.21,18c-.58.18-.92.23-1,.16s-.06-.2.13-.39a6.47,6.47,0,0,1,.73-.61c.31-.22.58-.4.82-.54a10,10,0,0,1,4.07-1.59A15.52,15.52,0,0,1,247.52,243Zm73.88-1.74a5.3,5.3,0,0,1,.51-.36,7.8,7.8,0,0,1,.71-.46h.2l.46.1a15.23,15.23,0,0,1-1.68,2.67A2,2,0,0,1,321.4,241.26Z" transform="translate(-103.05 -170.45)"/></g></svg>