<svg id="Layer_1" data-name="Layer 1" xmlns="http://www.w3.org/2000/svg" xmlns:xlink="http://www.w3.org/1999/xlink" viewBox="0 0 303.96 123.87"><defs><style>.cls-1{fill:url(#linear-gradient);}</style><linearGradient id="linear-gradient" x1="130.08" y1="280.58" x2="427.82" y2="219.4" gradientUnits="userSpaceOnUse"><stop offset="0" stop-color="#101923"/><stop offset="1" stop-color="#37449c"/></linearGradient></defs><path class="cls-1" d="M396.42,258.56a28.28,28.28,0,0,0-7.35-6.54,3.48,3.48,0,0,1-.18-5.89l.06,0a21.56,21.56,0,0,0,5.29-5.28,29,29,0,0,0,3.73-7.38,29.35,29.35,0,0,0,1.46-9.65,30.66,30.66,0,0,0-3.37-14.67,29.66,29.66,0,0,0-9.66-10.56,45.24,45.24,0,0,0-15.12-6.38,86.2,86.2,0,0,0-19.76-2.09h-79a3.42,3.42,0,0,0-2.68,1.28l-20,24.82a3.44,3.44,0,0,0,2.68,5.59H353.16a16.13,16.13,0,0,1,7.29,1.64c2.18,1.1,3.27,3.16,3.27,6.2s-1.06,5.31-3.18,6.46a15.19,15.19,0,0,1-7.38,1.74h-105a3.44,3.44,0,0,1-2.83-1.49l-23.89-34.58a37.2,37.2,0,0,0-9.75-9.75q-5.74-3.91-14.3-3.92-8.93,0-14.76,4.19a42.44,42.44,0,0,0-9.65,9.48L98.66,306.51a3.44,3.44,0,0,0,2.81,5.43h36.19a3.46,3.46,0,0,0,2.81-1.46l53.3-75.37a3.44,3.44,0,0,1,5.66.06L218.5,263.3q3.09,4.36,6.47,9.38c.6.9,1.18,1.75,1.75,2.57a3.43,3.43,0,0,1-2.91,5.38q-1.55,0-3.21,0H180.36a3.43,3.43,0,0,0-2.78,1.42l-17.77,24.45a3.44,3.44,0,0,0,2.78,5.47H352.43q14.38,0,23.95-2.74t15.22-7.46a26.36,26.36,0,0,0,8-11.21A40.7,40.7,0,0,0,402,276.41Q402,265.49,396.42,258.56Zm-34.88,19.86c-1.82,1.46-4.8,2.18-8.93,2.18H280.75a8.35,8.35,0,0,1-6.86-3.57l-7-10.07a2,2,0,0,1,1.6-3.07l84.14-.05q6.19,0,8.93,2.1a7.22,7.22,0,0,1,2.73,6.1A7.69,7.69,0,0,1,361.54,278.42Z" transform="translate(-98.02 -188.06)"/></svg>