<svg xmlns="http://www.w3.org/2000/svg" xmlns:xlink="http://www.w3.org/1999/xlink" width="3840" height="2160" viewBox="0 0 3840 2160">
  <defs>
    <clipPath id="clip-iPhone_X_XS_11_Pro_1">
      <rect width="3840" height="2160"/>
    </clipPath>
  </defs>
  <g id="iPhone_X_XS_11_Pro_1" data-name="iPhone X/XS/11 Pro – 1" clip-path="url(#clip-iPhone_X_XS_11_Pro_1)">
    <rect width="3840" height="2160" fill="#fff"/>
    <path id="Path_1" data-name="Path 1" d="M242.793,0H347.256L229.914-318.159H108.756L-8.586,0H95.877l12.4-41.022H230.391ZM169.335-233.253l36.252,112.095h-72.5ZM578.124,0h92.538V-318.159H574.308v160.272L463.644-318.159H364.428V0h96.354V-170.766ZM722.178,0H864.8c99.693,0,174.105-57.717,174.105-159.318S964.494-318.159,864.324-318.159H722.178Zm96.354-83.952V-234.207H864.8c51.516,0,76.32,31.959,76.32,74.889,0,40.068-28.62,75.366-76.8,75.366ZM1248.309,0h109.71L1300.3-112.572c25.281-12.4,57.24-41.5,57.24-96.354,0-59.625-40.068-109.233-114.48-109.233H1073.25V0H1169.6V-102.078h34.821Zm11.448-210.357c0,17.649-15.264,28.143-31.482,28.143H1169.6v-55.809h58.671C1244.493-238.023,1259.757-227.529,1259.757-210.357ZM1396.656,0h241.362V-80.136H1493.01v-40.545h141.669v-80.136H1493.01v-37.206h145.008v-80.136H1396.656Zm527.085,0h101.124l91.107-318.159H2007.693l-40.545,194.616-48.177-194.616h-72.5L1798.29-123.543l-41.022-194.616h-107.8L1740.573,0H1841.7l41.022-180.306ZM25.758,400H225.621c63.918,0,93.969-41.976,93.969-86.337,0-41.022-26.235-72.5-60.579-77.751,31.005-6.678,54.378-33.39,54.378-72.981,0-37.206-28.62-81.09-94.446-81.09H25.758Zm96.354-199.863V160.069h74.412c10.017,0,19.08,8.586,19.08,19.557,0,11.448-9.063,20.511-19.08,20.511Zm0,121.635V278.365h77.274c13.833,0,22.419,10.494,22.419,21.942,0,11.925-8.586,21.465-22.419,21.465ZM575.262,400H679.725L562.383,81.841H441.225L323.883,400H428.346l12.4-41.022H562.86ZM501.8,166.747l36.252,112.095h-72.5ZM882.45,400H999.792L874.341,229.711l120.2-147.87H876.726l-83.475,119.25V81.841H696.9V400h96.354V311.755L810.9,287.9Zm134.514,0h241.362V319.864H1113.318V279.319h141.669V199.183H1113.318V161.977h145.008V81.841H1016.964Zm459.351,0h109.71l-57.717-112.572c25.281-12.4,57.24-41.5,57.24-96.354,0-59.625-40.068-109.233-114.48-109.233H1301.256V400h96.354V297.922h34.821Zm11.448-210.357c0,17.649-15.264,28.143-31.482,28.143H1397.61V161.977h58.671C1472.5,161.977,1487.763,172.471,1487.763,189.643Z" transform="translate(1891 1389)" fill="#001c79" opacity="0.034"/>
  </g>
</svg>
